<svg width="10" height="16" viewBox="0 0 10 16" fill="none" xmlns="http://www.w3.org/2000/svg">
<g clip-path="url(#clip0_13007_18134)">
<path d="M3.95693 8.59162C4.22389 8.57961 4.47984 8.48171 4.68668 8.31249C4.98405 8.1036 5.25223 7.92573 5.25223 7.92481L5.34345 7.8637L5.25223 7.80167C5.2121 7.77339 1.24317 5.0195 0.832687 4.75588C0.752736 4.69001 0.655985 4.64777 0.553327 4.63391C0.450669 4.62005 0.346181 4.63512 0.251625 4.67743C0.169402 4.72327 0.101854 4.79147 0.0568106 4.87413C0.0117669 4.95679 -0.00892806 5.05053 -0.00287557 5.14447V6.08037L0.0290508 6.10227C0.0564164 6.12142 2.78386 8.01786 3.31292 8.3727C3.50048 8.50918 3.72505 8.58552 3.95693 8.59162Z" fill="#4A4A4A"/>
<path d="M9.2776 6.94551C9.04043 6.76764 0.527906 0.83386 0.165768 0.582097L0.0480957 0.5V1.9595C0.0480957 2.42289 0.290737 2.59803 0.595408 2.8206C0.595408 2.8206 7.12575 7.3715 7.93577 7.93341C7.12028 8.49805 0.97579 12.7589 0.587198 13.0088C0.121983 13.318 0.0763733 13.5196 0.0763733 13.9365V15.5018L9.2776 8.91766C9.43068 8.81294 9.55661 8.67327 9.64497 8.5102C9.73333 8.34713 9.78156 8.16536 9.78569 7.97993V7.81209C9.78569 7.47276 9.6142 7.18451 9.2776 6.94551Z" fill="#4A4A4A"/>
</g>
<defs>
<clipPath id="clip0_13007_18134">
<rect width="9.78594" height="15" fill="white" transform="translate(0 0.5)"/>
</clipPath>
</defs>
</svg>
