<svg width="16" height="13" viewBox="0 0 16 13" fill="none" xmlns="http://www.w3.org/2000/svg">
<path d="M11.375 5C11.375 2.59375 8.80469 0.625 5.6875 0.625C2.54297 0.625 0 2.59375 0 5C0 5.95703 0.382812 6.80469 1.01172 7.51562C0.65625 8.36328 0.0546875 9.01953 0.0546875 9.01953C0 9.04688 0 9.10156 0 9.18359C0 9.29297 0.0820312 9.375 0.191406 9.375H0.21875C1.20312 9.375 2.02344 9.04688 2.625 8.71875C3.5 9.12891 4.56641 9.375 5.6875 9.375C8.80469 9.375 11.375 7.43359 11.375 5ZM5.25 7.625V7.1875C4.92188 7.1875 4.62109 7.07812 4.375 6.88672C4.26562 6.80469 4.26562 6.64062 4.375 6.55859L4.67578 6.25781C4.75781 6.17578 4.86719 6.17578 4.94922 6.23047C5.05859 6.28516 5.19531 6.3125 5.30469 6.3125H6.07031C6.26172 6.3125 6.39844 6.17578 6.39844 5.95703C6.39844 5.79297 6.31641 5.65625 6.15234 5.62891L4.92188 5.24609C4.42969 5.08203 4.07422 4.61719 4.07422 4.07031C4.07422 3.38672 4.59375 2.83984 5.22266 2.83984V2.375C5.22266 2.26562 5.33203 2.15625 5.44141 2.15625H5.87891C6.01562 2.15625 6.09766 2.26562 6.09766 2.375V2.83984C6.42578 2.83984 6.72656 2.94922 6.97266 3.14062C7.08203 3.22266 7.08203 3.38672 6.97266 3.46875L6.67188 3.76953C6.58984 3.85156 6.48047 3.85156 6.39844 3.79688C6.28906 3.74219 6.15234 3.6875 6.04297 3.6875H5.27734C5.08594 3.6875 4.94922 3.85156 4.94922 4.07031C4.94922 4.23438 5.03125 4.37109 5.19531 4.39844L6.42578 4.78125C6.91797 4.91797 7.27344 5.41016 7.27344 5.95703C7.27344 6.64062 6.75391 7.1875 6.125 7.1875V7.625C6.125 7.76172 6.01562 7.84375 5.90625 7.84375H5.46875C5.33203 7.84375 5.25 7.76172 5.25 7.625ZM14.7109 11.0156C15.3398 10.3047 15.75 9.45703 15.75 8.5C15.75 6.69531 14.2734 5.10938 12.1953 4.45312C12.2227 4.64453 12.25 4.83594 12.25 5C12.25 7.89844 9.29688 10.25 5.6875 10.25C5.38672 10.25 5.08594 10.25 4.8125 10.2227C5.66016 11.7812 7.68359 12.875 10.0625 12.875C11.1562 12.875 12.2227 12.6289 13.0977 12.2188C13.6992 12.5469 14.5195 12.875 15.5312 12.875C15.6133 12.875 15.6953 12.8477 15.7227 12.7656C15.75 12.6836 15.75 12.5742 15.668 12.5195C15.668 12.5195 15.0664 11.8633 14.7109 11.0156Z" fill="#4A4A4A"/>
</svg>
