<svg width="16" height="13" viewBox="0 0 16 13" fill="none" xmlns="http://www.w3.org/2000/svg">
<path d="M13 4.97656C13.2344 5.02344 13.4922 5.02344 13.7266 4.97656L13.9375 5.32812C14.0078 5.44531 14.1484 5.49219 14.2891 5.44531C14.5469 5.35156 14.8047 5.1875 15.0391 5.02344C15.1328 4.92969 15.1797 4.76562 15.1094 4.64844L14.8984 4.32031C15.0625 4.13281 15.2031 3.89844 15.2734 3.66406H15.6719C15.8125 3.66406 15.9297 3.57031 15.9531 3.42969C16 3.125 16 2.84375 15.9531 2.5625C15.9297 2.42188 15.8125 2.30469 15.6719 2.30469H15.2734C15.2031 2.07031 15.0625 1.85938 14.8984 1.67188L15.1094 1.34375C15.1797 1.20312 15.1328 1.0625 15.0391 0.96875C14.8047 0.78125 14.5469 0.640625 14.2891 0.523438C14.1484 0.476562 14.0078 0.523438 13.9375 0.664062L13.7266 0.992188C13.4922 0.945312 13.2344 0.945312 13 0.992188L12.7891 0.664062C12.7188 0.523438 12.5781 0.476562 12.4375 0.523438C12.1797 0.640625 11.9219 0.78125 11.6875 0.96875C11.5938 1.0625 11.5469 1.20312 11.6172 1.34375L11.8281 1.67188C11.6641 1.85938 11.5234 2.07031 11.4531 2.30469H11.0547C10.9141 2.30469 10.7969 2.42188 10.7734 2.5625C10.7266 2.84375 10.7266 3.14844 10.7734 3.42969C10.7969 3.57031 10.9141 3.66406 11.0547 3.66406H11.4531C11.5234 3.89844 11.6641 4.13281 11.8281 4.32031L11.6172 4.64844C11.5469 4.76562 11.5938 4.92969 11.6875 5.02344C11.9219 5.1875 12.1797 5.35156 12.4375 5.44531C12.5781 5.49219 12.7188 5.44531 12.7891 5.32812L13 4.97656ZM12.7422 3.61719C12.0625 2.70312 13.0703 1.67188 13.9844 2.375C14.6875 3.26562 13.6562 4.29688 12.7422 3.61719ZM10.0469 7.22656C10.1406 6.73438 10.1406 6.21875 10.0469 5.72656L10.8438 5.32812C11.0781 5.1875 11.1719 4.90625 11.0781 4.64844C10.8672 4.08594 10.4688 3.57031 10.0703 3.10156C9.90625 2.89062 9.60156 2.84375 9.36719 2.98438L8.6875 3.38281C8.3125 3.05469 7.86719 2.79688 7.39844 2.63281V1.85938C7.39844 1.57812 7.21094 1.34375 6.92969 1.29688C6.34375 1.20312 5.73438 1.20312 5.14844 1.29688C4.89062 1.34375 4.70312 1.57812 4.70312 1.85938V2.63281C4.21094 2.79688 3.78906 3.05469 3.41406 3.38281L2.73438 2.98438C2.47656 2.84375 2.19531 2.91406 2.00781 3.10156C1.63281 3.57031 1.23438 4.08594 1.02344 4.64844C0.929688 4.90625 1.02344 5.1875 1.28125 5.32812L2.05469 5.72656C1.96094 6.21875 1.96094 6.73438 2.05469 7.22656L1.28125 7.60156C1.02344 7.74219 0.929688 8.04688 1.02344 8.28125C1.23438 8.86719 1.63281 9.38281 2.00781 9.82812C2.19531 10.0391 2.5 10.0859 2.73438 9.94531L3.41406 9.57031C3.78906 9.875 4.21094 10.1328 4.70312 10.2969V11.0938C4.70312 11.375 4.89062 11.6094 5.17188 11.6562C5.75781 11.75 6.36719 11.75 6.92969 11.6562C7.21094 11.6094 7.39844 11.375 7.39844 11.0938V10.2969C7.86719 10.1328 8.3125 9.875 8.6875 9.57031L9.36719 9.96875C9.60156 10.0859 9.90625 10.0391 10.0703 9.82812C10.4688 9.38281 10.8672 8.86719 11.0781 8.28125C11.1719 8.02344 11.0781 7.74219 10.8438 7.60156L10.0469 7.22656ZM7.28125 7.71875C5.47656 9.10156 3.41406 7.03906 4.82031 5.23438C6.625 3.85156 8.66406 5.91406 7.28125 7.71875ZM13 11.9844C13.2344 12.0312 13.4922 12.0312 13.7266 11.9844L13.9375 12.3359C14.0078 12.4531 14.1484 12.5 14.2891 12.4531C14.5469 12.3594 14.8047 12.1953 15.0391 12.0078C15.1328 11.9375 15.1797 11.7734 15.1094 11.6562L14.8984 11.3047C15.0625 11.1172 15.2031 10.9062 15.2734 10.6719H15.6719C15.8125 10.6719 15.9297 10.5781 15.9531 10.4375C16 10.1328 16 9.85156 15.9531 9.57031C15.9297 9.42969 15.8125 9.3125 15.6719 9.3125H15.2734C15.2031 9.07812 15.0625 8.86719 14.8984 8.67969L15.1094 8.35156C15.1797 8.21094 15.1328 8.07031 15.0391 7.97656C14.8047 7.78906 14.5469 7.64844 14.2891 7.53125C14.1484 7.48438 14.0078 7.53125 13.9375 7.67188L13.7266 8C13.4922 7.95312 13.2344 7.95312 13 8L12.7891 7.67188C12.7188 7.53125 12.5781 7.48438 12.4375 7.53125C12.1797 7.64844 11.9219 7.78906 11.6875 7.97656C11.5938 8.07031 11.5469 8.21094 11.6172 8.35156L11.8281 8.67969C11.6641 8.86719 11.5234 9.07812 11.4531 9.3125H11.0547C10.9141 9.3125 10.7969 9.42969 10.7734 9.57031C10.7266 9.85156 10.7266 10.1562 10.7734 10.4375C10.7969 10.5781 10.9141 10.6719 11.0547 10.6719H11.4531C11.5234 10.9062 11.6641 11.1172 11.8281 11.3047L11.6172 11.6562C11.5469 11.7734 11.5938 11.9375 11.6875 12.0078C11.9219 12.1953 12.1797 12.3594 12.4375 12.4531C12.5781 12.5 12.7188 12.4531 12.7891 12.3359L13 11.9844ZM12.7422 10.6016C12.0625 9.71094 13.0703 8.67969 13.9844 9.38281C14.6875 10.2734 13.6562 11.3047 12.7422 10.6016Z" fill="#4A4A4A"/>
</svg>
