<svg width="18" height="12" viewBox="0 0 18 12" fill="none" xmlns="http://www.w3.org/2000/svg">
<path d="M11.8672 0.5H9.51562C9.29688 0.5 9.10547 0.582031 8.94141 0.746094L6.23438 3.20703C5.79688 3.64453 5.79688 4.32812 6.17969 4.73828C6.53516 5.12109 7.24609 5.23047 7.71094 4.82031C7.71094 4.82031 7.71094 4.82031 7.73828 4.82031L9.89844 2.82422C10.0898 2.66016 10.3633 2.66016 10.5273 2.85156C10.6914 3.01562 10.6914 3.28906 10.5 3.45312L9.78906 4.10938L13.7812 7.33594C13.8359 7.41797 13.918 7.47266 13.9727 7.55469V2.25L12.4961 0.773438C12.332 0.609375 12.1133 0.5 11.8672 0.5ZM14.875 2.27734V8.40234C14.875 8.86719 15.2578 9.27734 15.75 9.27734H17.5V2.27734H14.875ZM16.1875 8.40234C15.9414 8.40234 15.75 8.18359 15.75 7.96484C15.75 7.71875 15.9414 7.52734 16.1875 7.52734C16.4062 7.52734 16.625 7.71875 16.625 7.96484C16.625 8.18359 16.4062 8.40234 16.1875 8.40234ZM0 9.25H1.75C2.21484 9.25 2.625 8.86719 2.625 8.375V2.27734H0V9.25ZM1.3125 7.52734C1.53125 7.52734 1.75 7.71875 1.75 7.96484C1.75 8.18359 1.53125 8.40234 1.3125 8.40234C1.06641 8.40234 0.875 8.18359 0.875 7.96484C0.875 7.71875 1.06641 7.52734 1.3125 7.52734ZM13.207 8.01953L9.13281 4.71094L8.3125 5.44922C7.49219 6.21484 6.26172 6.13281 5.52344 5.33984C4.8125 4.54688 4.86719 3.28906 5.66016 2.55078L7.90234 0.5H5.60547C5.35938 0.5 5.14062 0.609375 4.97656 0.773438L3.5 2.25V8.375H3.99219L6.45312 10.6172C7.21875 11.2461 8.3125 11.1094 8.91406 10.3711H8.94141L9.40625 10.7812C9.84375 11.1367 10.5 11.082 10.8555 10.6445L11.7031 9.57812L11.8672 9.71484C12.2227 10.0156 12.7695 9.96094 13.0977 9.57812L13.3438 9.25C13.6445 8.86719 13.5898 8.32031 13.207 8.01953Z" fill="#4A4A4A"/>
</svg>
