<svg width="14" height="11" viewBox="0 0 14 11" fill="none" xmlns="http://www.w3.org/2000/svg">
<path d="M6.75 0.25C3 0.25 0 3.27344 0 7C0 8.24219 0.328125 9.41406 0.914062 10.3984C1.03125 10.6328 1.28906 10.75 1.54688 10.75H11.9297C12.1875 10.75 12.4453 10.6328 12.5625 10.3984C13.1484 9.41406 13.5 8.24219 13.5 7C13.5 3.27344 10.4766 0.25 6.75 0.25ZM9.14062 3.0625L7.71094 7.375C8.03906 7.65625 8.25 8.05469 8.25 8.5C8.25 8.78125 8.15625 9.03906 8.03906 9.25H5.4375C5.32031 9.03906 5.25 8.78125 5.25 8.5C5.25 7.72656 5.85938 7.07031 6.63281 7.02344L8.08594 2.71094C8.17969 2.40625 8.48438 2.24219 8.78906 2.35938C9.09375 2.45312 9.23438 2.78125 9.14062 3.0625Z" fill="#4A4A4A"/>
</svg>
