<svg width="16" height="15" viewBox="0 0 16 15" fill="none" xmlns="http://www.w3.org/2000/svg">
<path d="M5.96094 12.3711C5.87891 12.207 5.74219 12.1797 5.6875 12.1797C5.60547 12.1797 5.46875 12.207 5.38672 12.3438L5.19531 12.7812C5.00391 13.1094 4.51172 13.082 4.375 12.7266L3.9375 11.332L3.63672 12.207C3.47266 12.6992 3.03516 13 2.51562 13H2.1875C1.94141 13 1.75 12.8086 1.75 12.5625C1.75 12.3438 1.94141 12.125 2.1875 12.125H2.51562C2.65234 12.125 2.76172 12.043 2.81641 11.9336L3.30859 10.4297C3.39062 10.1562 3.63672 9.99219 3.9375 9.99219C4.21094 9.99219 4.45703 10.1562 4.53906 10.4297L4.92188 11.5781C5.46875 11.1406 6.39844 11.3047 6.72656 11.9609C6.78125 12.0703 6.89062 12.125 7 12.125V9.88281L10.5 6.41016V5.125H6.78125C6.39844 5.125 6.125 4.85156 6.125 4.46875V0.75H0.65625C0.273438 0.75 0 1.05078 0 1.40625V14.0938C0 14.4766 0.273438 14.75 0.65625 14.75H9.84375C10.1992 14.75 10.5 14.4766 10.5 14.0938V13H7C6.53516 13 6.15234 12.7539 5.96094 12.3711ZM10.5 4.08594C10.5 3.92188 10.418 3.75781 10.3086 3.62109L7.62891 0.941406C7.49219 0.832031 7.32812 0.75 7.16406 0.75H7V4.25H10.5V4.08594ZM7.875 10.2383V12.125H9.73438L14.1641 7.69531L12.3047 5.83594L7.875 10.2383ZM15.5312 5.34375L14.6562 4.46875C14.3828 4.19531 13.9453 4.19531 13.6719 4.46875L12.9336 5.20703L14.793 7.06641L15.5312 6.32812C15.8047 6.05469 15.8047 5.61719 15.5312 5.34375Z" fill="#4A4A4A"/>
</svg>
