<svg width="16" height="13" viewBox="0 0 16 13" fill="none" xmlns="http://www.w3.org/2000/svg">
<path d="M14.4375 0.625H1.3125C0.574219 0.625 0 1.22656 0 1.9375V11.5625C0 12.3008 0.574219 12.875 1.3125 12.875H14.4375C15.1484 12.875 15.75 12.3008 15.75 11.5625V1.9375C15.75 1.22656 15.1484 0.625 14.4375 0.625ZM14.4375 11.5625H8.28516C8.3125 11.4531 8.3125 11.6719 8.3125 10.9609C8.3125 10.0859 7.46484 9.375 6.45312 9.375C6.17969 9.375 5.96094 9.59375 5.25 9.59375C4.51172 9.59375 4.32031 9.375 4.01953 9.375C3.00781 9.375 2.1875 10.0859 2.1875 10.9609C2.1875 11.6719 2.16016 11.4531 2.1875 11.5625H1.3125V3.6875H14.4375V11.5625ZM9.84375 9.375H12.9062C13.0156 9.375 13.125 9.29297 13.125 9.15625V8.71875C13.125 8.60938 13.0156 8.5 12.9062 8.5H9.84375C9.70703 8.5 9.625 8.60938 9.625 8.71875V9.15625C9.625 9.29297 9.70703 9.375 9.84375 9.375ZM9.84375 7.625H12.9062C13.0156 7.625 13.125 7.54297 13.125 7.40625V6.96875C13.125 6.85938 13.0156 6.75 12.9062 6.75H9.84375C9.70703 6.75 9.625 6.85938 9.625 6.96875V7.40625C9.625 7.54297 9.70703 7.625 9.84375 7.625ZM9.84375 5.875H12.9062C13.0156 5.875 13.125 5.79297 13.125 5.65625V5.21875C13.125 5.10938 13.0156 5 12.9062 5H9.84375C9.70703 5 9.625 5.10938 9.625 5.21875V5.65625C9.625 5.79297 9.70703 5.875 9.84375 5.875ZM5.25 8.5C6.20703 8.5 7 7.73438 7 6.75C7 5.79297 6.20703 5 5.25 5C4.26562 5 3.5 5.79297 3.5 6.75C3.5 7.73438 4.26562 8.5 5.25 8.5Z" fill="#4A4A4A"/>
</svg>
