<svg width="18" height="13" viewBox="0 0 18 13" fill="none" xmlns="http://www.w3.org/2000/svg">
<path d="M16.6797 9.10156C16.7617 8.71875 16.7617 8.30859 16.6797 7.92578L17.3906 7.51562C17.4727 7.48828 17.5 7.37891 17.4727 7.29688C17.2812 6.69531 16.9805 6.17578 16.5703 5.71094C16.5156 5.65625 16.4062 5.62891 16.3242 5.68359L15.6133 6.09375C15.3125 5.84766 14.9844 5.62891 14.6016 5.51953V4.69922C14.6016 4.58984 14.5469 4.50781 14.4648 4.50781C13.8359 4.37109 13.2344 4.37109 12.6328 4.50781C12.5508 4.50781 12.4961 4.58984 12.4961 4.69922V5.51953C12.1133 5.62891 11.7852 5.84766 11.4844 6.09375L10.7734 5.68359C10.6914 5.62891 10.582 5.65625 10.5273 5.71094C10.1172 6.17578 9.78906 6.69531 9.625 7.29688C9.59766 7.37891 9.625 7.48828 9.70703 7.51562L10.418 7.92578C10.3359 8.30859 10.3359 8.71875 10.418 9.10156L9.70703 9.51172C9.625 9.53906 9.59766 9.64844 9.625 9.73047C9.78906 10.332 10.1172 10.8516 10.5273 11.3164C10.582 11.3711 10.6914 11.3984 10.7734 11.3438L11.4844 10.9336C11.7852 11.1797 12.1133 11.3984 12.4961 11.5078V12.3281C12.4961 12.4375 12.5508 12.5195 12.6328 12.5195C13.2617 12.6562 13.8633 12.6562 14.4648 12.5195C14.5469 12.5195 14.6016 12.4375 14.6016 12.3281V11.5078C14.9844 11.3984 15.3125 11.1797 15.6133 10.9336L16.3242 11.3438C16.4062 11.3984 16.5156 11.3711 16.5703 11.3164C16.9805 10.8516 17.2812 10.332 17.4727 9.73047C17.5 9.64844 17.4727 9.53906 17.3906 9.51172L16.6797 9.10156ZM13.5625 9.83984C12.8242 9.83984 12.2227 9.23828 12.2227 8.5C12.2227 7.78906 12.8242 7.1875 13.5625 7.1875C14.2734 7.1875 14.875 7.78906 14.875 8.5C14.875 9.23828 14.2734 9.83984 13.5625 9.83984ZM2.625 5.875C3.58203 5.875 4.375 5.10938 4.375 4.125C4.375 3.16797 3.58203 2.375 2.625 2.375C1.64062 2.375 0.875 3.16797 0.875 4.125C0.875 5.10938 1.64062 5.875 2.625 5.875ZM8.75 6.75C8.77734 6.75 8.83203 6.75 8.88672 6.75C9.10547 6.14844 9.46094 5.60156 9.87109 5.13672C10.0898 4.91797 10.3633 4.78125 10.6641 4.78125C10.8555 4.78125 11.0469 4.83594 11.2109 4.91797L11.4297 5.05469C11.457 5.02734 11.457 5.02734 11.4844 5.02734C11.6758 4.61719 11.7852 4.17969 11.7852 3.71484C11.7852 2.01953 10.418 0.652344 8.72266 0.652344C7.05469 0.652344 5.6875 2.01953 5.6875 3.6875C5.6875 5.38281 7.05469 6.75 8.75 6.75ZM11.6211 12.082C11.5391 12.0547 11.4844 12 11.4297 11.9727C11.2109 12.1094 11.0195 12.2461 10.6641 12.2461C10.3906 12.2461 10.0898 12.1094 9.89844 11.8906C9.37891 11.3438 8.99609 10.6875 8.77734 10.0039C8.50391 9.04688 9.46094 8.63672 9.48828 8.60938C9.48828 8.55469 9.48828 8.47266 9.48828 8.41797L9.26953 8.28125C9.16016 8.22656 9.07812 8.14453 8.99609 8.0625C8.91406 8.0625 8.83203 8.0625 8.75 8.0625C8.06641 8.0625 7.4375 7.89844 6.86328 7.625H6.64453C4.89453 7.625 3.5 9.04688 3.5 10.7969V11.5625C3.5 12.3008 4.07422 12.875 4.8125 12.875H11.7852C11.6758 12.7109 11.6211 12.5469 11.6211 12.3281V12.082ZM4.73047 7.26953C4.40234 6.96875 3.96484 6.75 3.5 6.75H1.75C0.765625 6.75 0 7.54297 0 8.5V9.375C0 9.86719 0.382812 10.25 0.875 10.25H2.65234C2.84375 8.96484 3.60938 7.87109 4.73047 7.26953Z" fill="#4A4A4A"/>
</svg>
