<svg width="17" height="14" viewBox="0 0 17 14" fill="none" xmlns="http://www.w3.org/2000/svg">
<path d="M8.32812 4.86523C8.07422 4.63672 7.69336 4.63672 7.46484 4.86523L7.10938 5.24609C7.23633 5.60156 7.3125 5.95703 7.3125 6.3125C7.3125 6.49023 7.28711 6.66797 7.26172 6.82031L7.92188 6.16016L9.31836 7.55664C9.54688 7.81055 9.92773 7.81055 10.1562 7.55664L12.0098 5.72852L12.6191 6.36328C12.8984 6.64258 13.4062 6.43945 13.4062 6.0332V3.77344C13.4062 3.62109 13.2539 3.46875 13.1016 3.46875H10.8418C10.4355 3.46875 10.2324 3.97656 10.5117 4.25586L11.1465 4.86523L9.75 6.26172L8.32812 4.86523ZM4.0625 8.75C5.4082 8.75 6.5 7.68359 6.5 6.3125C6.5 4.9668 5.4082 3.875 4.0625 3.875C2.69141 3.875 1.625 4.9668 1.625 6.3125C1.625 7.6582 2.69141 8.75 4.0625 8.75ZM15.0312 0.625H5.28125C4.5957 0.625 4.0625 1.20898 4.0625 1.89453V3.0625C4.64648 3.0625 5.20508 3.24023 5.6875 3.51953V2.25H14.625V9.5625H7.28711C7.8457 9.99414 8.27734 10.5527 8.58203 11.1875H15.0059C15.6914 11.1875 16.25 10.6289 16.25 9.94336V1.89453C16.25 1.20898 15.6914 0.625 15.0312 0.625ZM4.875 9.5625H3.25C1.44727 9.5625 0 11.0352 0 12.8125C0 13.2695 0.355469 13.625 0.8125 13.625H7.3125C7.74414 13.625 8.125 13.2695 8.125 12.8125C8.125 11.0352 6.65234 9.5625 4.875 9.5625Z" fill="#4A4A4A"/>
</svg>
