<svg width="16" height="15" viewBox="0 0 16 15" fill="none" xmlns="http://www.w3.org/2000/svg">
<path d="M14.6992 11.5781L11.5 8.37891C10.8438 7.75 9.91406 7.61328 9.14844 7.99609L6.25 5.09766V3.375L2.75 0.75L1 2.5L3.625 6H5.32031L8.21875 8.92578C7.86328 9.69141 7.97266 10.6211 8.60156 11.25L11.8008 14.4766C12.2109 14.8594 12.8398 14.8594 13.25 14.4766L14.6992 13.0273C15.082 12.6172 15.082 11.9883 14.6992 11.5781ZM10.0508 6.90234C10.8438 6.90234 11.5547 7.20312 12.1016 7.75L12.6484 8.29688C13.0586 8.10547 13.4688 7.83203 13.8242 7.47656C14.8359 6.46484 15.1914 5.04297 14.8633 3.75781C14.8086 3.51172 14.5078 3.42969 14.3164 3.59375L12.293 5.64453L10.4336 5.31641L10.1328 3.45703L12.1562 1.43359C12.3477 1.24219 12.2383 0.941406 11.9922 0.886719C10.707 0.558594 9.28516 0.914062 8.27344 1.92578C7.48047 2.69141 7.125 3.73047 7.125 4.74219L9.39453 6.98438C9.61328 6.92969 9.83203 6.90234 10.0508 6.90234ZM7.20703 9.14453L5.67578 7.61328L1.49219 11.7695C0.808594 12.4531 0.808594 13.5742 1.49219 14.2578C2.17578 14.9414 3.29688 14.9414 3.98047 14.2578L7.34375 10.8672C7.15234 10.3203 7.07031 9.74609 7.20703 9.14453ZM2.75 13.6562C2.36719 13.6562 2.09375 13.3828 2.09375 13C2.09375 12.6445 2.36719 12.3438 2.75 12.3438C3.10547 12.3438 3.40625 12.6445 3.40625 13C3.40625 13.3828 3.10547 13.6562 2.75 13.6562Z" fill="#4A4A4A"/>
</svg>
